<?xml version="1.0" standalone="no"?>
<!DOCTYPE svg PUBLIC "-//W3C//DTD SVG 20010904//EN"
 "http://www.w3.org/TR/2001/REC-SVG-20010904/DTD/svg10.dtd">
<svg version="1.0" xmlns="http://www.w3.org/2000/svg"
 width="1457.000000pt" height="1041.000000pt" viewBox="0 0 1457.000000 1041.000000"
 preserveAspectRatio="xMidYMid meet">

<g transform="translate(0.000000,1041.000000) scale(0.100000,-0.100000)"
fill="#000000" stroke="none">
<path d="M5037 7758 c-22 -29 -127 -204 -358 -591 -35 -60 -79 -133 -97 -163
-23 -37 -32 -63 -28 -77 10 -40 46 -87 73 -98 18 -7 241 -9 653 -8 392 2 631
-1 642 -7 10 -5 32 -32 49 -59 47 -74 275 -448 325 -535 24 -41 48 -82 54 -90
5 -8 19 -34 31 -58 33 -67 68 -94 157 -125 45 -15 88 -27 96 -27 26 0 86 -33
86 -47 0 -16 38 -15 -413 -13 -337 1 -384 0 -427 -16 -49 -18 -144 -105 -444
-411 l-109 -112 18 -47 c34 -89 9 -84 398 -84 l344 0 19 -22 c10 -13 26 -34
34 -48 30 -53 275 -500 327 -599 30 -57 66 -121 79 -142 13 -21 24 -51 24 -66
0 -16 -36 -133 -80 -262 -44 -129 -80 -240 -80 -248 0 -23 47 -63 74 -63 53 0
70 32 161 302 69 207 85 264 79 292 -3 19 -85 178 -181 353 -96 175 -193 354
-215 398 -85 165 -119 215 -160 236 -36 19 -55 20 -302 16 -145 -1 -268 -1
-275 1 -27 9 -1 44 156 203 l166 169 497 0 c402 0 500 -3 509 -13 7 -10 11
-222 13 -713 l3 -699 163 -324 c90 -178 172 -337 183 -352 25 -35 71 -46 105
-25 17 12 79 126 199 367 l175 350 0 687 c0 382 4 693 9 701 8 12 91 15 490
17 313 2 491 0 509 -7 36 -14 332 -318 332 -341 0 -17 -16 -18 -274 -18 -260
0 -277 -1 -310 -21 -35 -20 -103 -132 -234 -379 -24 -47 -55 -103 -67 -125
-12 -22 -46 -85 -75 -140 -29 -55 -61 -111 -70 -125 -34 -51 -100 -183 -106
-215 -4 -24 14 -91 78 -280 45 -137 92 -263 103 -279 25 -38 76 -47 106 -20
38 34 33 56 -121 504 l-19 55 28 50 c16 28 52 95 81 150 29 55 80 150 113 210
33 61 75 138 93 172 19 34 46 84 61 110 16 27 39 70 53 96 49 94 15 87 409 87
392 0 365 -5 395 80 9 25 16 47 16 50 0 3 -112 118 -250 255 -151 151 -265
257 -287 267 -34 16 -81 18 -433 18 -217 0 -401 4 -409 9 -18 11 19 31 104 56
94 27 118 37 151 61 31 23 172 247 398 631 59 100 115 188 123 195 13 10 143
13 652 14 350 1 644 2 654 3 25 2 79 90 72 118 -5 22 -78 145 -252 428 -47 77
-117 194 -155 260 -38 66 -77 128 -85 138 -15 16 -62 17 -762 15 l-746 -3
-255 -339 -255 -340 -5 -578 c-3 -365 -9 -581 -15 -587 -11 -10 -128 -50 -211
-71 -49 -12 -57 -11 -169 21 -65 19 -125 39 -134 46 -14 10 -16 69 -17 575 -1
345 -6 573 -12 588 -5 14 -79 115 -163 225 -85 110 -187 246 -227 302 -41 57
-86 116 -102 133 l-28 30 -741 0 -740 0 -24 -32z m854 -78 l557 0 69 -87 c86
-109 349 -462 389 -522 l29 -45 3 -420 c3 -483 -4 -609 -31 -614 -15 -3 -203
52 -324 95 -54 19 -61 28 -201 263 -276 467 -338 565 -372 588 -32 22 -39 22
-364 24 -182 1 -452 2 -601 3 -148 0 -276 4 -282 8 -7 5 -13 14 -13 22 0 12
346 593 391 657 23 32 45 38 129 32 36 -2 315 -4 621 -4z m3699 -91 c33 -50
60 -91 60 -93 0 -1 32 -55 70 -120 39 -64 70 -119 70 -122 0 -3 15 -28 33 -57
72 -112 119 -208 108 -220 -7 -10 -153 -13 -611 -14 -532 -2 -605 -4 -635 -19
-27 -13 -49 -41 -106 -137 -39 -67 -120 -201 -179 -297 -59 -96 -138 -226
-175 -288 -75 -128 -66 -121 -250 -177 -66 -20 -134 -42 -152 -48 -66 -22 -64
-43 -61 532 l3 517 45 62 c25 34 70 95 100 135 45 61 317 421 323 429 3 4
1231 13 1265 9 29 -3 40 -14 92 -92z m-1991 -1893 c9 -11 13 -182 14 -683 l1
-668 -128 -257 c-71 -142 -134 -258 -141 -258 -7 0 -70 115 -140 256 l-128
256 0 671 c1 635 2 671 19 684 27 20 487 19 503 -1z"/>
<path d="M4417 3083 c9 -33 9 -264 0 -310 -6 -31 -5 -33 29 -39 42 -8 53 0 36
26 -7 12 -13 60 -13 123 0 56 -1 118 -2 137 -1 19 2 47 6 63 7 26 6 27 -28 27
-34 0 -35 -1 -28 -27z"/>
<path d="M4600 3100 c43 -30 50 -31 50 -10 0 16 -6 20 -32 20 -26 0 -30 -3
-18 -10z"/>
<path d="M4784 3088 c23 -32 23 -293 1 -325 -14 -20 -14 -22 7 -25 13 -2 33
-2 45 0 19 4 21 7 12 24 -6 12 -9 82 -7 184 l3 164 -38 0 c-37 0 -38 0 -23
-22z"/>
<path d="M5146 3093 c13 -27 17 -309 4 -332 -9 -18 -6 -21 24 -27 44 -8 62 2
44 23 -15 18 -19 292 -5 331 8 21 6 22 -33 22 -37 0 -41 -2 -34 -17z"/>
<path d="M5334 3095 c-11 -28 1 -31 35 -8 l34 23 -32 0 c-19 0 -34 -6 -37 -15z"/>
<path d="M5488 2946 c2 -101 -1 -172 -7 -184 -9 -17 -6 -20 26 -25 46 -8 59 0
38 23 -14 16 -16 42 -13 184 l3 166 -25 0 -25 0 3 -164z"/>
<path d="M5630 3107 c0 -2 14 -13 30 -25 l30 -23 0 26 c0 21 -5 25 -30 25 -16
0 -30 -1 -30 -3z"/>
<path d="M5784 3088 c13 -17 16 -51 16 -148 0 -69 -4 -141 -10 -160 -11 -40
-3 -48 40 -42 23 3 28 7 20 17 -7 8 -9 75 -8 184 l3 171 -38 0 c-37 0 -38 0
-23 -22z"/>
<path d="M5989 3089 c26 -21 37 -19 28 6 -4 8 -17 15 -29 15 l-23 -1 24 -20z"/>
<path d="M6688 2946 c3 -108 0 -171 -8 -185 -10 -20 -8 -21 31 -21 35 0 40 2
34 18 -13 30 -18 119 -7 126 8 4 8 16 0 37 -6 18 -8 64 -5 110 l5 79 -26 0
-27 0 3 -164z"/>
<path d="M6840 3105 c0 -3 9 -15 20 -27 42 -46 34 -132 -17 -165 -13 -9 -22
-18 -19 -20 6 -6 47 16 73 40 44 40 38 128 -11 162 -20 15 -46 20 -46 10z"/>
<path d="M7126 3075 c-19 -44 -19 -48 -6 -40 11 7 60 -89 60 -116 0 -9 9 -36
20 -60 11 -24 20 -60 20 -80 0 -32 4 -37 27 -42 48 -9 52 0 24 56 -29 57 -37
79 -83 212 -17 50 -34 94 -39 99 -4 5 -15 -8 -23 -29z"/>
<path d="M7426 3093 c14 -29 17 -299 3 -324 -9 -17 -8 -23 2 -30 22 -15 65 -6
59 11 -11 34 -10 333 1 346 9 12 4 14 -31 14 -37 0 -41 -2 -34 -17z"/>
<path d="M7593 3092 c32 -35 40 -78 23 -113 -9 -18 -14 -35 -11 -38 11 -10 55
45 61 76 5 27 2 37 -24 63 -34 34 -79 45 -49 12z"/>
<path d="M7755 3089 c-10 -29 -4 -30 35 -3 l34 24 -31 0 c-23 0 -33 -6 -38
-21z"/>
<path d="M7905 2938 c0 -95 -2 -179 -5 -187 -5 -15 41 -26 68 -16 12 4 12 8 1
22 -11 12 -14 57 -14 185 l0 168 -25 0 -25 0 0 -172z"/>
<path d="M8070 3090 c32 -25 40 -25 40 0 0 16 -7 20 -32 20 l-33 0 25 -20z"/>
<path d="M8610 3107 c0 -15 26 -74 36 -82 7 -5 35 -68 64 -140 28 -71 54 -133
59 -138 4 -4 14 6 21 23 11 25 10 33 -2 48 -20 24 -42 71 -87 187 -34 88 -42
100 -65 103 -14 2 -26 1 -26 -1z"/>
<path d="M8914 3084 c-16 -24 -16 -28 -1 -54 13 -21 17 -58 19 -158 3 -125 4
-131 25 -136 12 -4 28 -3 37 0 13 5 13 8 2 20 -16 15 -31 210 -24 299 4 52 3
55 -18 55 -14 0 -30 -10 -40 -26z"/>
<path d="M9142 3088 c14 -26 18 -274 5 -320 -7 -27 -6 -28 28 -28 33 0 35 2
25 20 -7 13 -10 81 -8 185 l3 165 -33 0 c-31 0 -32 -1 -20 -22z"/>
<path d="M9336 3095 c25 -19 34 -19 34 0 0 10 -10 15 -27 15 -26 0 -26 -1 -7
-15z"/>
<path d="M9500 3101 c0 -6 5 -13 10 -16 6 -3 10 -17 10 -30 0 -17 4 -22 18
-18 18 4 44 -22 212 -212 29 -33 57 -64 61 -70 6 -5 13 -5 20 2 16 16 2 70
-19 75 -10 3 -72 66 -137 141 -97 110 -125 135 -147 136 -16 1 -28 -3 -28 -8z"/>
<path d="M9810 3101 c0 -6 5 -13 10 -16 6 -3 10 -16 10 -28 1 -18 4 -15 15 12
19 43 19 41 -10 41 -14 0 -25 -4 -25 -9z"/>
<path d="M9950 3095 c0 -19 9 -19 34 0 19 14 19 15 -7 15 -17 0 -27 -5 -27
-15z"/>
<path d="M10100 2941 c0 -93 -3 -176 -6 -185 -5 -13 1 -16 31 -16 33 0 36 2
28 23 -4 12 -8 95 -8 185 0 161 0 162 -22 162 -23 0 -23 0 -23 -169z"/>
<path d="M10263 3090 c14 -11 28 -20 31 -20 3 0 6 9 6 20 0 16 -7 20 -31 20
l-32 0 26 -20z"/>
<path d="M6381 3078 c-6 -15 -5 -26 2 -33 7 -5 20 -37 30 -70 11 -33 23 -68
28 -77 18 -36 39 -104 39 -130 0 -26 3 -28 41 -28 l40 0 -24 33 c-20 27 -76
170 -114 291 -12 38 -30 44 -42 14z"/>
<path d="M8300 3097 c0 -2 -7 -20 -15 -40 -13 -32 -13 -35 3 -30 14 3 22 -7
35 -44 9 -26 17 -55 17 -63 0 -8 11 -37 25 -65 13 -27 25 -65 25 -82 0 -32 2
-33 41 -33 l40 0 -24 33 c-14 17 -36 66 -50 107 -55 161 -76 215 -86 218 -6 2
-11 2 -11 -1z"/>
<path d="M4600 2970 c0 -5 -9 -18 -21 -28 -17 -17 -18 -20 -4 -26 8 -3 20 -16
25 -28 7 -18 9 -10 9 35 1 31 -1 57 -4 57 -3 0 -5 -4 -5 -10z"/>
<path d="M7077 2964 c-4 -4 -7 -14 -7 -23 0 -11 3 -12 11 -4 6 6 10 16 7 23
-2 6 -7 8 -11 4z"/>
<path d="M9306 2944 c-20 -14 -20 -14 0 -28 16 -13 19 -13 22 0 2 8 2 20 0 28
-3 13 -6 13 -22 0z"/>
<path d="M5948 2942 c-23 -5 -23 -14 1 -29 15 -10 20 -9 24 1 7 19 -5 32 -25
28z"/>
<path d="M8226 2922 c-8 -24 -3 -37 12 -31 4 2 5 15 2 29 l-6 25 -8 -23z"/>
<path d="M9518 2858 c-5 -47 -11 -93 -14 -102 -5 -12 0 -16 21 -16 21 0 25 3
17 13 -6 7 -12 53 -14 103 l-3 89 -7 -87z"/>
<path d="M7539 2923 c-13 -3 -11 -9 11 -33 15 -16 33 -41 41 -57 36 -68 55
-94 76 -99 39 -10 45 6 16 40 -15 17 -44 60 -63 94 -33 59 -43 65 -81 55z"/>
<path d="M6314 2907 c-8 -21 -3 -29 13 -19 8 5 9 13 3 22 -7 12 -10 12 -16 -3z"/>
<path d="M7060 2900 c0 -5 5 -10 11 -10 5 0 7 5 4 10 -3 6 -8 10 -11 10 -2 0
-4 -4 -4 -10z"/>
<path d="M7031 2842 c-8 -20 -24 -51 -37 -68 l-23 -32 22 -6 c41 -11 48 -8 41
19 -4 14 -1 46 6 71 16 55 9 67 -9 16z"/>
<path d="M8200 2861 c-5 -11 -10 -25 -10 -32 0 -7 -11 -27 -26 -46 -28 -37
-25 -53 12 -53 23 0 25 3 19 30 -4 17 -3 36 3 43 10 13 24 77 17 77 -2 0 -9
-9 -15 -19z"/>
<path d="M6271 2811 c-11 -27 -26 -53 -32 -57 -14 -8 8 -24 35 -24 14 0 17 5
13 23 -4 12 -2 40 3 62 12 55 6 54 -19 -4z"/>
<path d="M5016 2788 c-10 -15 -26 -30 -37 -33 -29 -10 -22 -25 11 -25 24 0 33
6 41 27 5 14 8 34 7 42 -3 12 -8 9 -22 -11z"/>
<path d="M8596 2795 c-4 -11 -12 -28 -17 -37 -8 -15 -5 -18 22 -18 24 0 29 3
21 13 -5 6 -12 23 -14 37 -4 23 -5 23 -12 5z"/>
<path d="M4647 2774 c-15 -13 -35 -24 -43 -24 -8 0 -12 -4 -9 -10 12 -19 54
-10 71 15 24 36 13 47 -19 19z"/>
<path d="M6011 2770 c-13 -11 -30 -20 -38 -20 -8 0 -11 -4 -8 -10 14 -22 54
-10 70 20 18 35 10 38 -24 10z"/>
<path d="M9356 2765 c-24 -14 -34 -25 -26 -30 19 -12 57 4 63 27 4 12 5 23 4
23 -1 1 -19 -8 -41 -20z"/>
<path d="M7306 2342 c-19 -31 -35 -44 -66 -52 -22 -6 -40 -13 -40 -16 0 -4 12
-20 26 -37 20 -24 25 -39 23 -73 -2 -24 -1 -44 1 -45 3 -1 22 7 43 17 35 17
39 17 66 1 49 -29 59 -23 54 31 -4 41 -2 50 21 71 14 14 26 28 26 32 0 5 -18
13 -40 19 -30 8 -45 20 -64 52 l-24 41 -26 -41z"/>
<path d="M6313 2337 c-14 -23 -32 -37 -61 -45 -23 -7 -42 -16 -42 -19 0 -4 12
-19 27 -35 18 -19 27 -39 28 -65 1 -40 3 -42 49 -29 20 6 38 4 62 -8 19 -9 37
-16 39 -16 3 0 5 22 5 48 0 39 5 53 25 72 14 13 25 27 25 31 0 4 -19 13 -42
21 -29 9 -49 24 -63 45 -11 18 -23 32 -27 33 -3 0 -15 -15 -25 -33z"/>
<path d="M6809 2338 c-12 -24 -27 -36 -64 -48 l-48 -16 32 -34 c29 -31 32 -40
27 -77 -3 -24 -4 -43 -1 -43 2 0 20 8 40 17 33 16 37 16 70 0 52 -25 58 -22
52 19 -6 38 6 73 29 87 26 15 14 36 -26 47 -32 9 -45 19 -57 45 -21 43 -35 44
-54 3z"/>
<path d="M7798 2336 c-13 -27 -25 -35 -62 -45 -42 -10 -45 -13 -36 -31 6 -11
14 -20 19 -20 16 0 33 -58 26 -91 -6 -29 -5 -31 11 -24 72 30 73 30 103 12 45
-26 54 -22 46 21 -5 33 -2 44 19 69 14 17 26 36 26 42 0 5 -18 15 -41 21 -32
9 -43 18 -55 46 -18 43 -36 43 -56 0z"/>
<path d="M8196 2336 c-11 -27 -22 -35 -60 -45 -25 -6 -46 -14 -46 -17 0 -4 14
-22 31 -42 27 -31 30 -40 25 -75 -6 -35 -5 -39 11 -32 63 25 72 26 102 11 47
-25 53 -21 46 27 -6 38 -3 46 20 70 34 33 27 52 -20 61 -28 6 -39 15 -52 42
-21 43 -39 43 -57 0z"/>
<path d="M454 801 c15 -16 22 -18 33 -10 16 14 16 14 -22 23 -29 7 -29 7 -11
-13z"/>
</g>
</svg>
